<?xml version="1.0" encoding="UTF-8"?>
<svg xmlns="http://www.w3.org/2000/svg" id="Layer_1" data-name="Layer 1" viewBox="0 0 24 24" width="512" height="512"><path d="M19.5,0H4.5C2.019,0,0,2.019,0,4.5v1c0,.816,.393,1.542,1,1.999h0v12.001c0,2.481,2.019,4.5,4.5,4.5h13c2.481,0,4.5-2.019,4.5-4.5V7.5h0c.607-.458,1-1.184,1-2v-1c0-2.481-2.019-4.5-4.5-4.5Zm2.5,19.5c0,1.93-1.57,3.5-3.5,3.5H5.5c-1.93,0-3.5-1.57-3.5-3.5V7.95c.162,.033,.329,.05,.5,.05H21.5c.171,0,.338-.017,.5-.05v11.55Zm1-14c0,.827-.673,1.5-1.5,1.5H2.5c-.827,0-1.5-.673-1.5-1.5v-1c0-1.93,1.57-3.5,3.5-3.5h15c1.93,0,3.5,1.57,3.5,3.5v1Zm-5.634,6.659c.188,.202,.177,.519-.025,.707l-4.74,4.414c-.459,.46-1.087,.72-1.755,.72s-1.296-.26-1.768-.732l-2.431-2.413c-.196-.194-.197-.511-.003-.707,.195-.196,.513-.197,.707-.002l2.432,2.414c.569,.568,1.556,.567,2.123,0l4.752-4.427c.202-.188,.519-.177,.707,.025Z"/></svg>
