<svg xmlns="http://www.w3.org/2000/svg" version="1.1" xmlns:xlink="http://www.w3.org/1999/xlink" width="512" height="512" x="0" y="0" viewBox="0 0 80 80" style="enable-background:new 0 0 512 512" xml:space="preserve" class=""><g><path d="M72 73H8a1 1 0 0 1-1-1v-6.39a1 1 0 0 1 1-1h64a1 1 0 0 1 1 1V72a1 1 0 0 1-1 1zM9 71h62v-4.39H9z" fill="#000000" opacity="1" data-original="#000000" class=""></path><path d="M48.377 66.61a1 1 0 0 1-1-1V9H13v56.61a1 1 0 0 1-2 0V8a1 1 0 0 1 1-1h36.38a1 1 0 0 1 1 1v57.61a1 1 0 0 1-1.003 1z" fill="#000000" opacity="1" data-original="#000000" class=""></path><path d="M68 66.61a1 1 0 0 1-1-1V28.672l-18.983-7.344a1 1 0 1 1 .721-1.865l19.625 7.591a1 1 0 0 1 .639.932V65.61a1 1 0 0 1-1.002 1zM26.584 22.642h-8.418a1 1 0 0 1-1-1v-8.327a1 1 0 0 1 1-1h8.418a1 1 0 0 1 1 1v8.327a1 1 0 0 1-1 1zm-7.418-2h6.418v-6.327h-6.418zM42.209 22.642h-8.418a1 1 0 0 1-1-1v-8.327a1 1 0 0 1 1-1h8.418a1 1 0 0 1 1 1v8.327a1 1 0 0 1-1 1zm-7.418-2h6.418v-6.327h-6.418zM26.584 37.19h-8.418a1 1 0 0 1-1-1v-8.327a1 1 0 0 1 1-1h8.418a1 1 0 0 1 1 1v8.327a1 1 0 0 1-1 1zm-7.418-2h6.418v-6.327h-6.418zM42.209 37.19h-8.418a1 1 0 0 1-1-1v-8.327a1 1 0 0 1 1-1h8.418a1 1 0 0 1 1 1v8.327a1 1 0 0 1-1 1zm-7.418-2h6.418v-6.327h-6.418zM38.354 66.61a1 1 0 0 1-1-1V44.44H23.022v21.17a1 1 0 0 1-2 0V43.44a1 1 0 0 1 1-1h16.332a1 1 0 0 1 1 1v22.17a1 1 0 0 1-1 1z" fill="#000000" opacity="1" data-original="#000000" class=""></path><path d="M61.544 33.607h-6.708a1 1 0 0 1 0-2h6.708a1 1 0 0 1 0 2zM61.544 42.343h-6.708a1 1 0 0 1 0-2h6.708a1 1 0 0 1 0 2zM61.544 51.079h-6.708a1 1 0 0 1 0-2h6.708a1 1 0 0 1 0 2zM61.544 59.815h-6.708a1 1 0 0 1 0-2h6.708a1 1 0 0 1 0 2z" fill="#000000" opacity="1" data-original="#000000" class=""></path></g></svg>