<svg xmlns="http://www.w3.org/2000/svg" version="1.1" xmlns:xlink="http://www.w3.org/1999/xlink" width="512" height="512" x="0" y="0" viewBox="0 0 512 512" style="enable-background:new 0 0 512 512" xml:space="preserve" class=""><g><path d="M388.76 108.07h-10.01V97.05c0-12.96-10.55-23.51-23.51-23.51h-7.22c-12.96 0-23.51 10.55-23.51 23.51v11.02h-137.7V97.05c0-12.96-10.55-23.51-23.51-23.51h-7.22c-12.96 0-23.51 10.55-23.51 23.51v11.02h-9.32c-27.46 0-49.8 22.34-49.8 49.8v230.79c0 27.46 22.34 49.8 49.8 49.8h265.51c27.46 0 49.8-22.34 49.8-49.8V157.87c0-27.46-22.34-49.8-49.8-49.8zM336.5 97.05c0-6.35 5.16-11.51 11.51-11.51h7.22c6.35 0 11.51 5.16 11.51 11.51v37.53c0 6.35-5.16 11.51-11.51 11.51h-7.22c-6.35 0-11.51-5.16-11.51-11.51zm-191.94 0c0-6.35 5.17-11.51 11.51-11.51h7.22c6.35 0 11.51 5.16 11.51 11.51v37.53c0 6.35-5.16 11.51-11.51 11.51h-7.22c-6.35 0-11.51-5.16-11.51-11.51zm-21.32 23.02h9.32v14.5c0 12.96 10.55 23.51 23.51 23.51h7.22c12.96 0 23.51-10.55 23.51-23.51v-14.5h137.7v14.5c0 12.96 10.55 23.51 23.51 23.51h7.22c12.96 0 23.51-10.55 23.51-23.51v-14.5h10.01c20.85 0 37.8 16.96 37.8 37.8v49.08H85.44v-49.08c0-20.85 16.96-37.8 37.8-37.8zm265.52 306.4H123.24c-20.85 0-37.8-16.96-37.8-37.8V218.95h341.12v169.71c0 20.85-16.96 37.8-37.8 37.8z" fill="#000000" opacity="1" data-original="#000000" class=""></path><path d="M194.58 248.94h-47.76c-3.31 0-6 2.69-6 6v47.76c0 3.31 2.69 6 6 6h47.76c3.31 0 6-2.69 6-6v-47.76c0-3.31-2.69-6-6-6zm-6 47.76h-35.76v-35.76h35.76zM279.88 248.94h-47.76c-3.31 0-6 2.69-6 6v47.76c0 3.31 2.69 6 6 6h47.76c3.31 0 6-2.69 6-6v-47.76c0-3.31-2.69-6-6-6zm-6 47.76h-35.76v-35.76h35.76zM316.96 308.7h47.76c3.31 0 6-2.69 6-6v-47.76c0-3.31-2.69-6-6-6h-47.76c-3.31 0-6 2.69-6 6v47.76c0 3.31 2.69 6 6 6zm6-47.76h35.76v35.76h-35.76zM194.58 327.22h-47.76c-3.31 0-6 2.69-6 6v47.76c0 3.31 2.69 6 6 6h47.76c3.31 0 6-2.69 6-6v-47.76c0-3.31-2.69-6-6-6zm-6 47.76h-35.76v-35.76h35.76zM279.88 327.22h-47.76c-3.31 0-6 2.69-6 6v47.76c0 3.31 2.69 6 6 6h47.76c3.31 0 6-2.69 6-6v-47.76c0-3.31-2.69-6-6-6zm-6 47.76h-35.76v-35.76h35.76zM368.56 335.14l-32.6 31.78-14.87-14.16c-2.4-2.29-6.2-2.19-8.48.21s-2.19 6.2.21 8.48l19.05 18.15c1.16 1.1 2.65 1.66 4.14 1.66s3.02-.57 4.19-1.7l36.74-35.82c2.37-2.31 2.42-6.11.11-8.48a6 6 0 0 0-8.48-.11z" fill="#000000" opacity="1" data-original="#000000" class=""></path></g></svg>