<svg xmlns="http://www.w3.org/2000/svg" version="1.1" xmlns:xlink="http://www.w3.org/1999/xlink" width="512" height="512" x="0" y="0" viewBox="0 0 470 470" style="enable-background:new 0 0 512 512" xml:space="preserve" class=""><g><path d="M63.819 208.587h342.362a7.5 7.5 0 0 0 0-15H63.819a7.5 7.5 0 0 0 0 15z" fill="#2345d1" opacity="1" data-original="#000000" class=""></path><path d="m463.47 228.624-19.39-30.53-7.263-29.174H452.5a7.5 7.5 0 0 0 0-15h-19.417l-19.566-78.595c-4.858-19.514-24.416-34.8-44.525-34.8H101.008c-20.109 0-39.667 15.286-44.525 34.8L36.917 153.92H17.5a7.5 7.5 0 0 0 0 15h15.682l-7.263 29.174-19.39 30.531C2.807 234.487 0 244.144 0 251.087v108.638a7.5 7.5 0 0 0 7.5 7.5H10v54.75a7.5 7.5 0 0 0 7.5 7.5h78.911a7.5 7.5 0 0 0 7.5-7.5v-32.25a7.5 7.5 0 0 0-15 0v24.75H25v-47.25h420v47.25h-63.911v-24.75a7.5 7.5 0 0 0-15 0v32.25a7.5 7.5 0 0 0 7.5 7.5H452.5a7.5 7.5 0 0 0 7.5-7.5v-54.75h2.5a7.5 7.5 0 0 0 7.5-7.5V251.087c0-6.943-2.807-16.6-6.53-22.463zM15 251.087c0-4.092 1.998-10.966 4.192-14.42l20.042-31.558a7.522 7.522 0 0 0 .947-2.209L71.039 78.948c3.161-12.697 16.885-23.423 29.969-23.423h267.984c13.084 0 26.809 10.727 29.969 23.424l30.857 123.95c.195.782.515 1.528.947 2.209l20.042 31.558c2.194 3.455 4.192 10.329 4.192 14.421v101.138H343.265l-18.115-45.328a7.498 7.498 0 0 0-6.964-4.717H151.814a7.498 7.498 0 0 0-6.964 4.717l-18.115 45.328H15V251.087zm312.112 101.138H142.888l14.006-35.045h156.212l14.006 35.045z" fill="#2345d1" opacity="1" data-original="#000000" class=""></path><path d="M37.5 314.681h28.22c22.357 0 40.547-18.189 40.547-40.547 0-22.357-18.189-40.547-40.547-40.547H43.039a7.5 7.5 0 0 0 0 15H65.72c14.086 0 25.547 11.46 25.547 25.547s-11.46 25.547-25.547 25.547H37.5a7.5 7.5 0 0 0 0 15zM363.733 274.134c0 22.358 18.189 40.547 40.547 40.547h28.22a7.5 7.5 0 0 0 0-15h-28.22c-14.086 0-25.547-11.46-25.547-25.547 0-14.086 11.46-25.547 25.547-25.547h22.682a7.5 7.5 0 0 0 0-15H404.28c-22.358 0-40.547 18.189-40.547 40.547z" fill="#2345d1" opacity="1" data-original="#000000" class=""></path></g></svg>