<?xml version="1.0" encoding="UTF-8"?>
<svg xmlns="http://www.w3.org/2000/svg" id="Layer_1" data-name="Layer 1" viewBox="0 0 24 24">
  <path d="M0,21H24V10H0v11ZM19.239,13l.826,3.282,.684-3.282h1.252l-1.252,6h-1.25l-1.511-6h1.252Zm-4.5,0l.826,3.282,.684-3.282h1.252l-1.252,6h-1.25l-1.511-6h1.252Zm-5.752,1.985c0-1.094,.891-1.985,2-1.985h0c1.104,.008,2,.895,2,1.985v.084h-1.255s.005-.054,.005-.084c0-.394-.342-.728-.75-.735-.391,0-.749,.302-.749,.751v1.998c0,.449,.358,.751,.749,.751,.408-.007,.75-.34,.75-.735,0-.03-.005-.084-.005-.084h1.255v.084c0,1.09-.896,1.977-2,1.984h0c-1.109,.001-2-.889-2-1.984v-2.03ZM24,6v2H0v-2c0-1.657,1.343-3,3-3H21c1.657,0,3,1.343,3,3Z"/>
</svg>
