<svg xmlns="http://www.w3.org/2000/svg" version="1.1" xmlns:xlink="http://www.w3.org/1999/xlink" width="512" height="512" x="0" y="0" viewBox="0 0 30.333 30.333" style="enable-background:new 0 0 512 512" xml:space="preserve" class=""><g><path d="M0 26.75V11.908c0-4.59 3.735-8.325 8.325-8.325h13.681c4.591 0 8.327 3.735 8.327 8.325v2.56c0 4.59-3.735 8.325-8.325 8.325H8.518L0 26.75zM8.325 5.439a6.476 6.476 0 0 0-6.469 6.469v11.933l6.253-2.905h13.899a6.476 6.476 0 0 0 6.469-6.469v-2.56a6.477 6.477 0 0 0-6.471-6.469H8.325v.001zm.612 6.328a1.765 1.765 0 1 1 0 3.53 1.765 1.765 0 0 1 0-3.53zm12.458 0a1.765 1.765 0 1 1 0 3.53 1.765 1.765 0 0 1 0-3.53zm-6.23 0a1.765 1.765 0 1 1 0 3.53 1.765 1.765 0 0 1 0-3.53z" style="" fill="#010002" data-original="#010002" class=""></path></g></svg>