<svg xmlns="http://www.w3.org/2000/svg" version="1.1" xmlns:xlink="http://www.w3.org/1999/xlink" xmlns:svgjs="http://svgjs.com/svgjs" width="512" height="512" x="0" y="0" viewBox="0 0 32 32" style="enable-background:new 0 0 512 512" xml:space="preserve" class=""><g><path d="m9.8 10.55 7.62 11-6.65 8.08A1 1 0 0 1 10 30a1 1 0 0 1-1-1.29L12.65 17H8a1 1 0 0 1-.88-1.47zm15.1 1A1 1 0 0 0 24 11h-5.3l4.17-7.51a1 1 0 0 0 0-1A1 1 0 0 0 22 2h-7a1 1 0 0 0-.88.53L11.93 6.6l8.13 11.75 4.71-5.72a1 1 0 0 0 .13-1.06zm.92 16.86-6.42-9.25-8-11.57-3.58-5.16a1 1 0 0 0-1.64 1.14l4.15 6 7.75 11.19 6.1 8.81a1 1 0 0 0 1.39.25 1 1 0 0 0 .25-1.39z" data-name="Layer 13" fill="#000000" data-original="#000000" class=""></path></g></svg>