<svg xmlns="http://www.w3.org/2000/svg" version="1.1" xmlns:xlink="http://www.w3.org/1999/xlink" width="512" height="512" x="0" y="0" viewBox="0 0 24 24" style="enable-background:new 0 0 512 512" xml:space="preserve" class=""><g><g fill-rule="evenodd" clip-rule="evenodd"><path fill="#2345d1" d="M12.5 2.75a1.75 1.75 0 1 0 0 3.5 1.75 1.75 0 0 0 0-3.5zM9.25 4.5a3.25 3.25 0 1 1 6.5 0 3.25 3.25 0 0 1-6.5 0zM10.147 16.765a.75.75 0 0 1 .588.882 7.749 7.749 0 0 1-2.757 4.531l-.51.408a.75.75 0 0 1-.936-1.172l.509-.407a6.25 6.25 0 0 0 2.224-3.654.75.75 0 0 1 .882-.588z" opacity="1" data-original="#999999" class=""></path><path fill="#1339d7" d="M10.93 9.267c.199-.01.392-.017.57-.017.554 0 1.154.062 1.694.14 1.521.218 2.673 1.34 3.134 2.722a.67.67 0 0 0 .746.449l1.803-.3a.75.75 0 1 1 .246 1.479l-1.803.3a2.17 2.17 0 0 1-2.415-1.454c-.307-.922-1.043-1.586-1.924-1.712-.268-.039-.54-.071-.805-.093l-.272 2.711c-.084.84-.093 1.062-.037 1.26.057.198.183.38.698 1.049l4.43 5.74a.75.75 0 1 1-1.188.917l-4.43-5.74a48.075 48.075 0 0 0-.07-.093c-.411-.53-.736-.951-.882-1.46-.145-.51-.092-1.039-.025-1.707l.012-.115.254-2.54c-1.673.273-2.916 1.846-2.916 3.697a.75.75 0 0 1-1.5 0c0-2.64 1.914-5.083 4.68-5.233z" opacity="1" data-original="#222222" class=""></path></g></g></svg>