<svg xmlns="http://www.w3.org/2000/svg" version="1.1" xmlns:xlink="http://www.w3.org/1999/xlink" width="512" height="512" x="0" y="0" viewBox="0 0 512 512" style="enable-background:new 0 0 512 512" xml:space="preserve" class=""><g><path d="M176.376 466.5c0 6.627-5.373 12-12 12H91.428c-31.941 0-57.928-25.986-57.928-57.927v-61.901c0-6.627 5.373-12 12-12s12 5.373 12 12v61.901c0 18.708 15.22 33.927 33.928 33.927h72.948c6.627 0 12 5.373 12 12zM45.5 165.328c6.627 0 12-5.373 12-12V91.427C57.5 72.72 72.72 57.5 91.428 57.5h72.948c6.627 0 12-5.373 12-12s-5.373-12-12-12H91.428C59.486 33.5 33.5 59.486 33.5 91.427v61.901c0 6.627 5.373 12 12 12zm421 181.344c-6.627 0-12 5.373-12 12v61.901c0 18.708-15.22 33.927-33.928 33.927h-72.948c-6.627 0-12 5.373-12 12s5.373 12 12 12h72.948c31.941 0 57.928-25.986 57.928-57.927v-61.901c0-6.628-5.373-12-12-12zM420.572 33.5h-72.948c-6.627 0-12 5.373-12 12s5.373 12 12 12h72.948c18.708 0 33.928 15.22 33.928 33.927v61.901c0 6.627 5.373 12 12 12s12-5.373 12-12V91.427c0-31.941-25.986-57.927-57.928-57.927zM176.357 164.357h159.285c6.627 0 12 5.373 12 12v159.285c0 6.627-5.373 12-12 12H176.357c-6.627 0-12-5.373-12-12V176.357c0-6.627 5.373-12 12-12zm12 159.285h135.285V188.357H188.357z" fill="#000000" opacity="1" data-original="#000000" class=""></path></g></svg>