<svg xmlns="http://www.w3.org/2000/svg" version="1.1" xmlns:xlink="http://www.w3.org/1999/xlink" width="512" height="512" x="0" y="0" viewBox="0 0 128 128" style="enable-background:new 0 0 512 512" xml:space="preserve" class=""><g><path d="m126.645 54.358-9.979-2.315a53.474 53.474 0 0 0-6.99-16.807l5.436-8.72a1.75 1.75 0 0 0-.247-2.163l-11.22-11.22a1.749 1.749 0 0 0-2.163-.248L92.76 18.32a53.48 53.48 0 0 0-16.806-6.989l-2.316-9.979A1.75 1.75 0 0 0 71.934 0H56.066a1.75 1.75 0 0 0-1.7 1.355l-2.316 9.979a53.48 53.48 0 0 0-16.81 6.986l-8.722-5.435a1.749 1.749 0 0 0-2.163.248l-11.22 11.22a1.75 1.75 0 0 0-.247 2.163l5.436 8.72a53.474 53.474 0 0 0-6.99 16.807l-9.98 2.315A1.751 1.751 0 0 0 0 56.064v15.867a1.751 1.751 0 0 0 1.354 1.7l9.98 2.315a53.474 53.474 0 0 0 6.99 16.807l-5.436 8.72a1.752 1.752 0 0 0 .247 2.164l11.22 11.219a1.749 1.749 0 0 0 2.163.248l8.722-5.435a53.456 53.456 0 0 0 16.806 6.989l2.316 9.98a1.75 1.75 0 0 0 1.7 1.354h15.872a1.75 1.75 0 0 0 1.7-1.354l2.316-9.98a53.456 53.456 0 0 0 16.806-6.989l8.722 5.435a1.749 1.749 0 0 0 2.163-.248l11.22-11.219a1.752 1.752 0 0 0 .247-2.164l-5.436-8.72a53.474 53.474 0 0 0 6.99-16.807l9.979-2.315a1.752 1.752 0 0 0 1.355-1.7V56.064a1.752 1.752 0 0 0-1.351-1.706ZM124.5 70.54l-9.706 2.252a1.75 1.75 0 0 0-1.319 1.354 50.063 50.063 0 0 1-7.331 17.629 1.75 1.75 0 0 0-.026 1.891l5.289 8.484-9.254 9.253-8.484-5.288a1.752 1.752 0 0 0-1.891.026 50.018 50.018 0 0 1-17.629 7.331 1.75 1.75 0 0 0-1.354 1.319l-2.252 9.709H57.457l-2.252-9.706a1.752 1.752 0 0 0-1.354-1.319 50.01 50.01 0 0 1-17.629-7.331 1.752 1.752 0 0 0-1.891-.026l-8.484 5.282-9.254-9.253 5.289-8.484a1.75 1.75 0 0 0-.026-1.891 50.044 50.044 0 0 1-7.331-17.629 1.75 1.75 0 0 0-1.319-1.354L3.5 70.54V57.454l9.706-2.254a1.749 1.749 0 0 0 1.319-1.353 50.041 50.041 0 0 1 7.331-17.63 1.75 1.75 0 0 0 .026-1.891l-5.289-8.484 9.254-9.253 8.484 5.288a1.75 1.75 0 0 0 1.891-.026 50.01 50.01 0 0 1 17.629-7.331 1.752 1.752 0 0 0 1.354-1.32l2.252-9.7h13.086l2.257 9.7a1.75 1.75 0 0 0 1.354 1.319 50.018 50.018 0 0 1 17.629 7.331 1.75 1.75 0 0 0 1.891.026l8.484-5.288 9.254 9.253-5.289 8.484a1.75 1.75 0 0 0 .026 1.891 50.06 50.06 0 0 1 7.331 17.63 1.749 1.749 0 0 0 1.319 1.353l9.706 2.252Z" fill="#000000" opacity="1" data-original="#000000" class=""></path><path d="M64 30a34 34 0 1 0 34 34 34.038 34.038 0 0 0-34-34Zm0 64.5A30.5 30.5 0 1 1 94.5 64 30.534 30.534 0 0 1 64 94.5Z" fill="#000000" opacity="1" data-original="#000000" class=""></path></g></svg>