<svg xmlns="http://www.w3.org/2000/svg" version="1.1" xmlns:xlink="http://www.w3.org/1999/xlink" width="512" height="512" x="0" y="0" viewBox="0 0 512.004 512.004" style="enable-background:new 0 0 512 512" xml:space="preserve" class=""><g><path d="M442.669 396.395V128c0-53.045-32.501-62.101-123.051-63.659l14.933-37.429c28.651 4.757 43.051 11.488 44.117 15.755 0 5.891 4.776 10.667 10.667 10.667s10.667-4.776 10.667-10.667C400.002 5.547 309.474 0 255.469 0c-43.115 0-143.467 4.16-143.467 42.667 0 5.891 4.776 10.667 10.667 10.667s10.667-4.776 10.667-10.667c1.067-4.267 15.36-11.072 44.053-15.84l14.997 37.483C101.869 65.899 69.335 74.955 69.335 128v268.395c0 32 24 63.509 51.509 71.157l-36.267 25.003c-4.848 3.349-6.064 9.994-2.715 14.843 3.349 4.848 9.994 6.064 14.843 2.715l59.136-40.779h200.32l59.115 40.779c4.848 3.349 11.494 2.134 14.843-2.715 3.349-4.848 2.134-11.494-2.715-14.843l-37.227-25.675c38.188-8.789 52.492-40.469 52.492-70.485zm-187.2-375.062c19.12-.075 38.231.826 57.259 2.699l-16 40.053C284.077 64 270.658 64 256.002 64c-14.656 0-28.075 0-40.736.085l-16.043-40.107a554.817 554.817 0 0 1 56.246-2.645zm165.866 375.062c0 19.275-6.933 51.605-53.333 51.605H133.335c-18.624 0-42.667-25.024-42.667-51.605V128c0-38.677 15.445-42.667 165.333-42.667S421.335 89.323 421.335 128v268.395z" fill="#2345d1" opacity="1" data-original="#000000" class=""></path><path d="M146.861 309.333h217.408c18.357 0 35.701-16.693 35.701-34.357V156.352c.032-18.613-17.931-28.352-35.701-28.352H146.861c-20.203 0-34.859 11.925-34.859 28.352v118.624c0 17.664 16.939 34.357 34.859 34.357zm-13.526-152.981c0-5.109 8.288-7.019 13.525-7.019h217.408c6.016 0 14.368 2.443 14.368 7.019l.032 118.624c0 5.717-8 13.024-14.4 13.024H146.861c-6.187 0-13.525-7.061-13.525-13.024V156.352zM357.335 341.333c-23.564 0-42.667 19.102-42.667 42.667 0 23.564 19.103 42.667 42.667 42.667s42.667-19.102 42.667-42.667c0-23.564-19.103-42.667-42.667-42.667zm0 64c-11.782 0-21.333-9.551-21.333-21.333 0-11.782 9.551-21.333 21.333-21.333 11.782 0 21.333 9.551 21.333 21.333.001 11.782-9.551 21.333-21.333 21.333zM154.669 341.333c-23.564 0-42.667 19.102-42.667 42.667 0 23.564 19.103 42.667 42.667 42.667s42.667-19.102 42.667-42.667c-.001-23.564-19.103-42.667-42.667-42.667zm0 64c-11.782 0-21.333-9.551-21.333-21.333 0-11.782 9.551-21.333 21.333-21.333s21.333 9.551 21.333 21.333c0 11.782-9.551 21.333-21.333 21.333z" fill="#2345d1" opacity="1" data-original="#000000" class=""></path></g></svg>