<svg xmlns="http://www.w3.org/2000/svg" version="1.1" xmlns:xlink="http://www.w3.org/1999/xlink" xmlns:svgjs="http://svgjs.com/svgjs" width="512" height="512" x="0" y="0" viewBox="0 0 512 512" style="enable-background:new 0 0 512 512" xml:space="preserve" class=""><g><g><path d="m256 21.996c-135.311 0-245.002 109.691-245.002 245.002 0 103.626 64.335 192.225 155.241 228.036h179.522c90.906-35.812 155.241-124.411 155.241-228.036 0-135.311-109.691-245.002-245.002-245.002z" fill="#73c3f9" data-original="#73c3f9" class=""></path><path d="m272.426 1.102c-3.35 2.764-10.719 10.658-4.059 22.656 0 0-2.432.63-6.073 2.146h25.791l15.535-16.282c-9.809-4.152-20.274-7.053-31.194-8.52z" fill="#ffc839" data-original="#ffc839" class=""></path><path d="m274.267 1.36c-5.96-.893-12.059-1.36-18.267-1.36-16.892 0-32.984 3.427-47.62 9.622l15.535 16.282h40.525c3.641-1.516 6.073-2.146 6.073-2.146-6.463-11.645.287-19.423 3.754-22.398z" fill="#ffb332" data-original="#ffb332" class=""></path><path d="m340.924 147.392 30.169 16.179c4.633-12.906 7.164-26.814 7.164-41.314s-2.531-28.408-7.164-41.314l-30.169 16.179z" fill="#ffe98d" data-original="#ffe98d"></path><path d="m171.077 147.392-30.169 16.179c-4.633-12.906-7.164-26.814-7.164-41.314s2.531-28.408 7.164-41.314l30.169 16.179z" fill="#ffb332" data-original="#ffb332" class=""></path><path d="m371.093 80.943c-11.544-32.154-36.173-58.072-67.473-71.321l-15.535 14.136 7.439 50.546 47.546 22.819z" fill="#ffdd40" data-original="#ffdd40"></path><path d="m140.907 80.943c11.544-32.154 36.173-58.072 67.473-71.322l15.535 14.136-5.052 51.924-49.933 21.441z" fill="#f99a28" data-original="#f99a28" class=""></path><path d="m293.856 169.248-4.738 42.288h50.388c14.027-13.128 24.964-29.516 31.587-47.965l-28.023-16.179z" fill="#ffdd40" data-original="#ffdd40"></path><path d="m218.953 168.781-50.023-21.389-28.023 16.179c6.623 18.449 17.56 34.837 31.587 47.965h50.541z" fill="#f99a28" data-original="#f99a28" class=""></path><path d="m229.701 161.159.722.71c-.386 2.512-1.616 12.759 1.772 24.47 2.299 7.945 7.107 17.511 17.048 25.197h41.031l9.261-39.009-43.535-28.712z" fill="#ffe98d" data-original="#ffe98d"></path><path d="m231.573 161.495-.956-.94-18.153 11.972 9.261 39.009h29.246c-25.32-18.444-19.398-50.041-19.398-50.041z" fill="#ffdd40" data-original="#ffdd40"></path><path d="m288.085 23.758h-19.718s-48.065 12.416-37.177 60.279c.027.116.046.23.071.346l24.739 16.316 43.535-28.711z" fill="#ffe98d" data-original="#ffe98d"></path><path d="m270.513 23.758h-46.598l-11.45 48.23 21.235 14.004c-.095-.642-.299-1.279-.364-1.955-4.613-48.117 37.177-60.279 37.177-60.279z" fill="#ffdd40" data-original="#ffdd40"></path><path d="m256 97.122v50.27l43.535 25.135 43.535-25.135v-50.27l-43.535-25.135z" fill="#ffb332" data-original="#ffb332" class=""></path><path d="m232.637 83.633c-6.263 3.374-15.001 10.217-15.001 22.155v38.026s1.868 11.871 13.227 18.09l25.137-14.512v-50.27z" fill="#ffdd40" data-original="#ffdd40"></path><path d="m233.336 84.037-20.871-12.05-43.534 25.135v50.27l43.534 25.135 19.108-11.032c-10.717-6.316-12.507-17.68-12.507-17.68s0-19.427 0-38.026c0-11.479 8.08-18.248 14.27-21.752z" fill="#ffc839" data-original="#ffc839" class=""></path><path d="m240.804 204.107c-1.727 2.771-6.15 10.71-7.454 21.099-1.462 11.643.922 28.557 20.36 43.412-.366 1.466-1.046 4.455-1.645 8.419 16.422-28.015 33.047-52.984 46.886-72.614-13.23-.322-28.086-.571-42.95-.571-5.146 0-10.29.03-15.368.082z" fill="#ffc839" data-original="#ffc839" class=""></path><path d="m166.803 205.852s38.128 78.502 44.698 150.03c12.639-28.969 27.645-57.047 42.713-82.487.638-3.358 1.202-5.37 1.202-5.37-37.924-28.188-12.726-64.068-12.696-64.11-37.395.337-71.637 1.937-75.917 1.937z" fill="#ffb332" data-original="#ffb332" class=""></path><path d="m251.232 299.489c1.938 21.76 12.607 36.365 30.884 42.326-.197 1.328-.438 3.518-.401 6.112 9.71-17.075 19.617-33.178 29.097-47.81 13.522-51.31 34.385-94.265 34.385-94.265-3.225 0-22.958-.884-48.213-1.476-13.047 18.505-28.576 41.766-44.077 67.847-1.146 5.704-2.676 16.032-1.675 27.266z" fill="#ffdd40" data-original="#ffdd40"></path><path d="m212.006 394.043c.165-.006.327-.022.493-.022h44.916c8.164-16.888 16.95-33.295 25.875-48.859.156-2.625.529-4.385.529-4.385-44.971-13.432-28.458-72.559-28.405-72.747-15.489 25.758-31.085 54.438-44.282 84.139.852 8.002 1.333 15.937 1.333 23.684 0 6.334-.167 12.386-.459 18.19z" fill="#ffc839" data-original="#ffc839" class=""></path><path d="m285.784 362.249c3.032 4.298 7.64 6.882 13.694 7.679.051.007.103.016.155.024.736-24.701 5.938-50.96 12.591-75.067-9.814 14.951-20.179 31.584-30.379 49.32-.371 4.494-.222 12.146 3.939 18.044z" fill="#ffe98d" data-original="#ffe98d"></path><path d="m255.415 394.02h44.086c.166 0 .328.017.493.022-.292-5.804-.46-11.855-.46-18.19 0-2.45.063-4.924.154-7.408-.005-.001-.01-.003-.014-.003-21.156-2.786-15.872-27.587-15.856-27.66-9.79 16.853-19.469 34.759-28.403 53.239z" fill="#ffdd40" data-original="#ffdd40"></path><path d="m314.001 404.195c-1.26-7.036-7.352-12.175-14.5-12.175h-45.486c-2.259 2.022-6.277 6.419-6.598 12.37-.265 4.892 2.018 9.677 6.787 14.24-.475.504-1.054 1.168-1.664 1.963h59.571c1.851 0 3.643.279 5.345.779-1.185-5.29-2.35-11.006-3.455-17.177z" fill="#ffe98d" data-original="#ffe98d"></path><path d="m256.386 392.02h-43.887c-7.147 0-13.24 5.139-14.5 12.175-1.105 6.171-2.27 11.887-3.455 17.178 1.702-.501 3.494-.779 5.345-.779h54.583c1.084-1.283 1.914-2 1.914-2-16.851-14.762 0-26.574 0-26.574z" fill="#ffdd40" data-original="#ffdd40"></path><path d="m254.204 418.631c-2.055 2.179-6.019 7.223-6.273 13.904-.21 5.497 2.13 10.812 6.955 15.805v12.71c-.947.909-2.707 2.956-2.834 5.715-.102 2.225.85 4.359 2.834 6.352v12.62c-1.838 1.479-6.968 6.21-7.598 13.323-.38 4.285.948 8.6 3.935 12.883 1.589.03 3.18.057 4.777.057 31.685 0 61.965-6.016 89.761-16.966-4.576-13.922-10.189-34.16-14.948-60.737-1.625-9.075-9.483-15.704-18.703-15.704h-57.944c.013.013.025.025.038.038z" fill="#bc6242" data-original="#bc6242"></path><path d="m253.103 511.966c-11.457-15.195 3.283-25.487 3.283-25.487v-14c-6.393-5.876 0-10.753 0-10.753v-14c-15.678-15.678 0-29.133 0-29.133h-56.496c-9.219 0-17.078 6.629-18.703 15.704-4.759 26.577-10.372 46.815-14.948 60.737 26.947 10.616 56.232 16.576 86.864 16.932z" fill="#a5533a" data-original="#a5533a" class=""></path><g><path d="m274.663 461.726h-37.327c-3.866 0-7-3.134-7-7s3.134-7 7-7h37.327c3.866 0 7 3.134 7 7s-3.133 7-7 7z" fill="#d1714b" data-original="#d1714b"></path></g><g><path d="m265.332 486.479h-18.664c-3.866 0-7-3.134-7-7s3.134-7 7-7h18.664c3.866 0 7 3.134 7 7s-3.134 7-7 7z" fill="#d1714b" data-original="#d1714b"></path></g><g fill="#9bd8f9"><path d="m426.339 90.92c4.761 33.821 2.925 79.262-25.977 120.616-55 78.695-66.211 145.979-22.105 209.837 10.741 15.551 24.184 25.079 38.374 30.613 51.686-44.919 84.371-111.133 84.371-184.987 0-69.116-28.629-131.536-74.663-176.079z" fill="#9bd8f9" data-original="#9bd8f9" class=""></path><path d="m85.661 90.92c-4.761 33.821-2.925 79.262 25.977 120.616 55 78.695 66.211 145.979 22.105 209.837-10.741 15.551-24.184 25.079-38.374 30.613-51.686-44.919-84.371-111.133-84.371-184.987 0-69.116 28.629-131.536 74.663-176.079z" fill="#9bd8f9" data-original="#9bd8f9" class=""></path></g></g></g></svg>